<svg xmlns="http://www.w3.org/2000/svg" xmlns:xlink="http://www.w3.org/1999/xlink" viewBox="0 0 406 691"><defs><style>.cls-1{isolation:isolate;}.cls-2{fill:url(#linear-gradient);}.cls-12,.cls-3{mix-blend-mode:screen;}.cls-3{fill:url(#linear-gradient-2);}.cls-4{fill:url(#linear-gradient-3);}.cls-10,.cls-13,.cls-14,.cls-15,.cls-5,.cls-9{mix-blend-mode:lighten;}.cls-5{fill:url(#linear-gradient-4);}.cls-6{mix-blend-mode:hard-light;fill:url(#linear-gradient-5);}.cls-7{fill:url(#linear-gradient-6);}.cls-8{fill:url(#linear-gradient-7);}.cls-9{fill:url(#linear-gradient-8);}.cls-10{fill:url(#linear-gradient-9);}.cls-11{opacity:0.42;mix-blend-mode:multiply;fill:url(#linear-gradient-10);}.cls-12{opacity:0.57;fill:url(#linear-gradient-11);}.cls-13{fill:url(#linear-gradient-12);}.cls-14{fill:url(#linear-gradient-13);}.cls-15{fill:url(#linear-gradient-15);}</style><linearGradient id="linear-gradient" y1="345.5" x2="406" y2="345.5" gradientUnits="userSpaceOnUse"><stop offset="0" stop-color="#e97fdf"/><stop offset="1" stop-color="#ffdece" stop-opacity="0.9"/></linearGradient><linearGradient id="linear-gradient-2" x1="387.55" y1="345.5" x2="29.53" y2="345.5" gradientUnits="userSpaceOnUse"><stop offset="0" stop-color="#62f2e2" stop-opacity="0.6"/><stop offset="1" stop-color="#81d1f4" stop-opacity="0.2"/></linearGradient><linearGradient id="linear-gradient-3" x1="19.38" y1="345.5" x2="386.62" y2="345.5" gradientUnits="userSpaceOnUse"><stop offset="0" stop-color="#c0e0b2" stop-opacity="0.9"/><stop offset="1" stop-color="#e97fdf"/></linearGradient><linearGradient id="linear-gradient-4" y1="345.5" x2="406" y2="345.5" gradientUnits="userSpaceOnUse"><stop offset="0" stop-color="#fff5df"/><stop offset="0.11" stop-color="#fff4dc" stop-opacity="0.94"/><stop offset="0.32" stop-color="#fff0d4" stop-opacity="0.79"/><stop offset="0.62" stop-color="#ffebc8" stop-opacity="0.55"/><stop offset="0.97" stop-color="#ffe4b6" stop-opacity="0.23"/><stop offset="1" stop-color="#ffe3b5" stop-opacity="0.2"/></linearGradient><linearGradient id="linear-gradient-5" x1="17.53" y1="345.5" x2="387.55" y2="345.5" gradientUnits="userSpaceOnUse"><stop offset="0" stop-color="#4eeee9" stop-opacity="0.4"/><stop offset="1" stop-color="#81d1f4" stop-opacity="0.2"/></linearGradient><linearGradient id="linear-gradient-6" x1="386.62" y1="345.5" x2="19.38" y2="345.5" gradientUnits="userSpaceOnUse"><stop offset="0" stop-color="#81d1f4" stop-opacity="0.2"/><stop offset="0.19" stop-color="#adaeed" stop-opacity="0.2"/><stop offset="0.55" stop-color="#df87e5" stop-opacity="0.2"/><stop offset="1" stop-color="#ef7ae2" stop-opacity="0.2"/></linearGradient><linearGradient id="linear-gradient-7" x1="104.43" y1="341.86" x2="405.83" y2="341.86" gradientTransform="matrix(-1.04, -0.09, 0.09, -1.03, 408.22, 713.84)" gradientUnits="userSpaceOnUse"><stop offset="0" stop-color="#b8ffff"/><stop offset="1" stop-color="#c0ffd8" stop-opacity="0.2"/></linearGradient><linearGradient id="linear-gradient-8" x1="11.07" xlink:href="#linear-gradient-4"/><linearGradient id="linear-gradient-9" x1="-293.63" y1="1142.23" x2="1.42" y2="1142.23" gradientTransform="matrix(0.65, 0.24, -0.3, 0.8, 514.33, -645.76)" xlink:href="#linear-gradient-7"/><linearGradient id="linear-gradient-10" x1="14.76" y1="345.5" x2="387.55" y2="345.5" gradientUnits="userSpaceOnUse"><stop offset="0" stop-color="#ba9ee9"/><stop offset="1" stop-color="#81d1f4" stop-opacity="0.2"/></linearGradient><linearGradient id="linear-gradient-11" x1="201.31" y1="343" x2="405.24" y2="343" gradientTransform="matrix(-1, 0, 0, 1, 420, 0)" gradientUnits="userSpaceOnUse"><stop offset="0" stop-color="#c0e0b2" stop-opacity="0.9"/><stop offset="0.2" stop-color="#c4d7b6" stop-opacity="0.91"/><stop offset="0.5" stop-color="#cfbcc2" stop-opacity="0.94"/><stop offset="0.86" stop-color="#e192d6" stop-opacity="0.98"/><stop offset="1" stop-color="#e97fdf"/></linearGradient><linearGradient id="linear-gradient-12" x1="31.37" y1="345" x2="386.62" y2="345" gradientUnits="userSpaceOnUse"><stop offset="0" stop-color="#ffffdf"/><stop offset="0.12" stop-color="#fffede" stop-opacity="0.98"/><stop offset="0.26" stop-color="#fffcdb" stop-opacity="0.93"/><stop offset="0.4" stop-color="#fff9d6" stop-opacity="0.84"/><stop offset="0.56" stop-color="#fff5d0" stop-opacity="0.71"/><stop offset="0.72" stop-color="#ffefc7" stop-opacity="0.55"/><stop offset="0.89" stop-color="#ffe8bd" stop-opacity="0.35"/><stop offset="1" stop-color="#ffe3b5" stop-opacity="0.2"/></linearGradient><linearGradient id="linear-gradient-13" x1="29.53" x2="387.55" xlink:href="#linear-gradient-10"/><linearGradient id="linear-gradient-15" x1="15.69" y1="328.5" x2="387.55" y2="328.5" xlink:href="#linear-gradient-10"/></defs><title>phone_img</title><g class="cls-1"><g id="Layer_2" data-name="Layer 2"><g id="Layer_2-2" data-name="Layer 2"><rect class="cls-2" width="406" height="691" rx="39.17" ry="39.17"/><rect class="cls-3" x="29.53" width="358.02" height="691" rx="36.78" ry="36.78"/><path class="cls-4" d="M53.41,658c-18.72,0-34-16.6-34-36.88V69.86c0-20.28,15.31-36.88,34-36.88H352.59c18.72,0,34,16.6,34,36.88Z"/><rect class="cls-5" width="406" height="691" rx="39.17" ry="39.17"/><rect class="cls-6" x="17.53" width="370.01" height="691" rx="37.39" ry="37.39"/><path class="cls-7" d="M19.38,621.14c0,20.28,15.31,36.88,34,36.88H352.59c18.72,0,34-16.6,34-36.88V69.86c0-20.28-15.31-36.88-34-36.88Z"/><path class="cls-8" d="M11.63,616.44,42.45,36,338,28.86a48.42,48.42,0,0,1,18.54,5.79l2.9,1.58L30.18,651.07,25,649.59c-10.46-3-10-6.72-11.75-20.31Z"/><rect class="cls-9" x="11.07" width="394.93" height="691" rx="38.63" ry="38.63"/><path class="cls-10" d="M109.39,435.67S227.88,112,41.71,36.29C41.71,36.29-52,370,109.39,435.67Z"/><rect class="cls-11" x="14.76" y="34" width="372.78" height="623" rx="35.64" ry="35.64"/><path class="cls-12" d="M218.69,288,51.33,34l-6.24.92a32.29,32.29,0,0,0-26.24,24l-3.16,12L14.76,621l.59,4.67a36.75,36.75,0,0,0,16,26.33h0l120-231"/><path class="cls-13" d="M386.62,70,329.41,657H56.21a62.94,62.94,0,0,1-21.43-3.77L31.37,652,352.48,33l6,.93c12.05,1.86,21.93,11.31,25.14,24Z"/><rect class="cls-14" x="29.53" width="358.02" height="691" rx="36.78" ry="36.78"/><rect class="cls-14" x="29.53" width="358.02" height="691" rx="36.78" ry="36.78"/><rect class="cls-15" x="15.69" width="371.86" height="657" rx="36.55" ry="36.55"/></g></g></g></svg>